EMG
version=1
nRows=34
nColumns=17
inDegrees=no
endheader
time	EMG01_right_gast_med	EMG02_right_glut_max	EMG03_left_gast_med	EMG04_left_glut_max	EMG05_right_glut_med	EMG06_right_bic_fem	EMG07_right_rect_fem	EMG08_right_vast_lat	EMG09_right_vast_med	EMG10_right_tens_fasc_lat	EMG11_left_glut_med	EMG12_left_bic_fem	EMG13_left_rect_fem	EMG14_left_vast_lat	EMG15_left_vast_med	EMG16_left_tens_fasc_lat
      2.28000000	    -28.13334846	     -4.85156298	    443.57553101	   -174.20196533	    -17.06917381	     -6.63677788	      8.28713417	     -4.34027863	    -35.07236862	    -33.88597870	      2.57639790	      0.43411696	     -1.41676533	     19.15895271	     -4.14505816	      7.55155182
      2.29000000	    -25.74363899	     19.05020523	     58.62548447	   -117.93210602	    -81.15172577	     32.05063248	     -9.50137997	    -18.94498253	    -14.88938141	    -35.49592209	     -1.21758962	     -0.43159676	     24.49450111	      0.66685057	    -21.11360741	     19.85840607
      2.30000000	     -7.96415138	     48.56034470	    -13.21131897	    -60.36021042	   -100.65897369	     17.74545670	     -7.70166683	    -45.15418243	    -43.40896988	    -28.64423180	     -8.17115021	     -1.94134521	    -26.56224823	     -7.29678011	      3.16393328	      6.96000767
      2.31000000	     -3.03673577	     -2.44022274	    -85.87641907	     -7.94574308	   -133.08094788	    -40.77288437	     -0.14107049	     15.82583427	    -37.24525452	      2.11650467	      7.15842533	     -8.35427666	      2.93072176	    -22.71067238	     -7.62566853	     32.97555161
      2.32000000	     -3.94393682	    -34.04645157	     17.92478371	     23.28456879	   -237.92362976	    -72.18182373	    -14.20921612	     36.09581375	    -38.28098297	      4.99571037	     -5.51792240	    -12.82511997	    -30.98307037	    -18.43874550	    -14.25605011	    -36.01602173
      2.33000000	      4.38028479	     -7.29054260	     -9.83237553	     22.57092285	   -258.04885864	     80.89629364	    -35.08440018	    -22.68345642	    -10.93297195	      9.57342529	      5.26610851	      0.64020705	     15.11339283	    -17.05766678	     -1.81890845	    -76.94091797
      2.34000000	     10.26712036	     14.19743061	    291.02008057	     14.99619865	   -134.94346619	    -20.62145615	     -8.70989323	     31.92563820	    -17.15887260	     34.80915833	      0.35382721	     -2.83211708	     -5.68565512	     12.08586025	     12.92913628	   -107.30693054
      2.35000000	     16.97495651	     -3.43967628	     35.27292633	     -9.24089241	    -55.13888168	     20.41451263	    -39.12530899	    -11.95516014	     54.82338715	     14.58649826	      7.78951597	    -10.77252388	    -25.59599686	     -3.43215370	     10.41494751	   -148.83244324
      2.36000000	     23.04553604	      5.82051706	     12.34214878	    -31.89903450	    200.48829651	    -27.97841644	     -0.02348274	      8.85248375	    202.72724915	     21.96811676	      4.01951408	     -0.09483732	     -8.50248814	     -6.44136286	     -4.73034096	   -151.88325500
      2.37000000	      0.02414131	     -7.29488850	     24.42947769	    -33.99673843	     36.93709564	    -95.30809021	     -9.28782082	     25.34721947	    240.77581787	     28.71315384	     -0.82694840	      3.62694526	      0.55882239	      3.77867866	    -26.53017426	   -154.16267395
      2.38000000	     28.81039047	     17.88698196	    -16.82520294	    -10.71409225	   -206.34762573	     88.90951538	    -15.31908417	     15.78032494	    -63.78984451	     -1.55988455	     -7.33851910	     11.69560623	      5.74593401	     -3.12721443	    -61.03989792	   -152.90496826
      2.39000000	    -46.23187637	     17.07892799	     -0.09384894	     -0.00273561	    160.19393921	     23.28975677	    -17.04994583	     -9.77696323	     43.42719650	    -30.51452637	    -15.89806747	     -4.30978775	     -5.61344051	     -0.98091221	    -55.56734848	   -141.17054749
      2.40000000	    -45.50466919	     -8.87765598	     -7.47615623	    -10.92179489	    317.28213501	     92.58155060	     21.65222168	      5.30773258	   -134.79776001	    -16.17889404	     -2.86917353	    -21.94721985	      6.32815456	      7.18206978	     -8.67532921	   -160.50389099
      2.41000000	    -56.84603119	     -6.94144440	    -15.67227554	    -15.39337921	   -166.25109863	    -99.76472473	     -0.81206965	    -38.38469696	    -50.03492737	    -90.40302277	     -0.40496725	     20.03348541	     -1.60378981	      0.82387829	     11.18913460	   -183.16351318
      2.42000000	     29.56672096	    -22.67606163	    -17.78186798	     -8.22601128	   -360.73593140	   -176.18539429	     16.07224083	    -47.96998978	    -39.73621368	   -161.80371094	     -0.32384831	     -4.05338478	      0.58748829	     -9.73314190	     -9.46158791	   -174.08364868
      2.43000000	     84.37220001	     12.63194084	     -3.98041582	      8.36851883	   -176.26055908	    -21.10966492	     10.42165279	    -29.34053802	    -33.70631409	    -86.00914764	     -4.23745298	     -7.18642473	     -3.93654299	     -8.00262356	    -25.02349091	   -177.59490967
      2.44000000	    -11.94512558	     84.74213409	     -5.11865187	     -4.96057796	    353.42483521	    -10.40500259	     20.63723373	    -12.42647362	   -255.61437988	     46.87420654	      0.25826073	    -51.05921936	      1.26448238	     -5.05285692	    -10.94707203	   -181.08203125
      2.45000000	    -35.31128311	    114.76383209	     -4.94379711	    -28.03218269	      7.70970106	     25.81089020	     11.69391441	     11.85845661	    -97.35429382	     19.57422638	     -5.21440887	     11.16412258	      6.30201530	    -12.78956223	     15.53260422	   -154.96150208
      2.46000000	    -68.63891602	     53.69905472	      3.92704129	    -39.63054657	   -154.23626709	     30.26413155	    -28.94325256	     24.76249695	     83.03907013	    -39.90428925	     -5.09325123	     -5.64411068	      7.15141058	      4.67765665	     50.70733643	   -135.83227539
      2.47000000	    -86.02481842	    -19.11580467	     -9.34702492	    -41.69982529	     30.59798241	     89.02047729	    -26.33050346	     20.70689774	    360.69586182	    -37.18002319	    -11.07913971	     -4.61778450	      1.55093431	     10.91541672	     63.18690872	   -102.62145996
      2.48000000	    -41.32443237	    -78.06240845	      5.85476732	    -27.28839111	    146.55421448	    -14.54799366	    -29.38462448	     15.80767727	    126.11528015	    -17.55900955	      9.70748138	      9.12339211	     -4.00613403	      6.33786106	     53.55440140	    -85.12204742
      2.49000000	     45.37789154	   -109.61161804	      1.04693997	    -10.53414631	    181.37667847	    -41.71009445	    -30.27157974	     39.33596802	     89.81122589	     35.95186615	      1.08824801	    -13.61734962	     -6.48550653	     15.20690918	     35.91256332	    -49.64926910
      2.50000000	     71.52322388	    -56.97151566	      1.15061903	     -5.22758532	    122.78447723	    -23.57642746	    -24.26887512	     13.13574886	     54.48160172	     50.29261780	     -5.09470844	     -4.56195259	     -2.78567028	     25.59663391	     19.66584587	    -46.64373016
      2.51000000	     64.64456940	     10.35667229	     -7.14368677	    -22.77327347	    -24.75761414	    -64.59262085	     10.44760799	    -29.80308914	     33.39986420	     26.17760086	     -2.32944751	    -20.48919296	    -15.82082844	     22.95185471	     33.10032654	    -41.22856140
      2.52000000	     70.25877380	     13.97831917	    -10.93197536	     58.51135254	     56.22759247	    -38.59733963	     27.03706169	    -34.61421585	   -364.76309204	     24.12472534	      1.28964448	    -21.26524734	     -8.68494225	      5.00764513	     71.47942352	    -59.98364639
      2.53000000	     85.53186798	     27.90841675	     -3.26263905	    249.08476257	      6.27933407	    -45.24480820	     39.37374496	    -35.44382095	   -294.35412598	     -0.37591970	      4.21203804	    -16.00104523	    -12.67536736	    -25.63288689	     95.12908173	    -99.24813080
      2.54000000	    -35.91718674	     30.79672813	     -2.53478765	    364.90316772	     19.33699608	     43.37169647	     28.32386208	    -28.58791924	    -89.42765045	     10.10709190	     -1.61881399	    -23.80160332	     -4.47315216	    -38.25872421	     66.25022125	   -112.02574921
      2.55000000	    150.71998596	     13.26484489	     -5.37685680	    418.63241577	     24.74858093	    -12.99729729	     13.14805698	    -24.82248878	     31.14263153	    223.28576660	     -6.04485798	      6.87494373	     -7.47266293	    -19.34963989	    -10.53682137	      8.55244255
      2.56000000	     -1.82010651	     -7.90501690	     22.89253998	    614.41644287	     25.62775421	     -2.20671582	      7.30825663	    -12.34278297	    123.13294983	    180.89042664	     -1.71315932	     -5.84992504	      7.88841963	      0.81839299	    -82.67491150	     42.41167450
      2.57000000	    -93.83351135	      2.40388036	      3.98889446	    359.20349121	     49.11477661	      9.81244946	    -16.05200958	     -3.56420612	    141.66990662	   -168.53710938	     -1.56317782	      3.48100710	      4.24726582	    -13.01757622	    -92.08653259	   -291.68551636
      2.58000000	    111.81435394	     46.22737122	     -8.51781082	     57.21173477	    108.06920624	      1.49384165	    -17.38970184	     -6.60037565	    111.85860443	    -46.46474075	      0.02798891	     -1.89187980	     11.44155121	     -2.44896364	    -63.10874176	   -457.45013428
      2.59000000	     11.70502472	     51.38358307	    -11.61305332	     -1.63133860	    -22.13732338	      3.58555460	    -22.28934669	     -3.43776941	     46.89165878	    -44.62858963	     -7.65048790	     -8.42410469	      7.01585293	     -6.67836094	    -32.16205215	   -309.08160400
      2.60000000	    -43.12186050	     53.54841232	     -4.20767593	   -181.95408630	    -57.69260406	      2.65476990	    -15.24623299	     -0.27701330	     29.45077133	     18.96144295	    -16.21712875	      4.46411037	     -0.02188349	     -3.77964497	      0.49883175	   -149.88508606
      2.61000000	    408.32769775	     56.31452179	     19.29542923	   -323.44070435	    -45.50774384	     41.49316406	     -8.08652687	    -14.72055531	     24.54744720	     43.28872299	     -2.93417764	      4.22265434	     -1.44230103	     -5.29857254	      8.00956821	    -37.30549240
